<svg xmlns="http://www.w3.org/2000/svg" viewBox="0 0 46.1 34.65" xmlns:v="https://vecta.io/nano"><defs><clipPath id="A" transform="translate(12.4 -3.65)"><path d="M4.7 32.1H24a4.69 4.69 0 0 0 4.7-4.7V4.7A4.83 4.83 0 0 0 24 0H4.7A4.69 4.69 0 0 0 0 4.7v22.8a4.61 4.61 0 0 0 4.7 4.6z" fill="none"/></clipPath></defs><g clip-path="url(#A)"><g fill="#7eda92"><path d="M33.3 34.55c-2.1-5.4 1.5-12.2 4.2-13.2 1.83-.5 6.92 8.26 8.6 13.2z"/><path d="M8.1 34.55a82.37 82.37 0 0 1 .2-10.8c2.3-4.9 16.1-5.7 16.1-5.7s9.3 1.6 13 3.3c3.9 3.64 2.11 4.89 3.5 13.2z"/></g><path d="M29.1 13.85c-.42 5.4 1 12.15-7.3 7.7a1.71 1.71 0 0 1-.6-1.9l2-10.2z" fill="#f9a47c"/><path d="M32.8 6.35s1.9 9.3.3 11.8c-1.5 1.7-9.7-2.1-10.5-4.6s-3-7 .5-9.8 7.5-1.9 9.7 2.6z" fill="#f9b08d"/><path d="M0 34.55c2.52-5.91 7.6-11.84 10.7-13 5.38-1.55 7.86 8.8 3.8 13.1H0z" fill="#7eda92"/><path d="M32.8 6.35c3.35-7.56-7.4-8.29-10.3-2.6-4.92 1.16-1.17 6.69.1 9l.5-.5c.59-1.51-.43-6.64 3.8-6.9 1.9-.3 2.1 1.4 5.9 1z" fill="#713336"/><path d="M22.6 10.55c-2.35-3.45-2.69 2.69-.2 2.8 1.1-.2.2-2.8.2-2.8z" fill="#f9b08d"/><path d="M21.5 18.35s1.7 2.7 3.9 3.5c.4.1.8 1 .8 1 .56-1.59 2.17-1.19 2.7-3.8l.3.3a12.39 12.39 0 0 1 .1 5l-1.9-1.2a4.43 4.43 0 0 1-2.5.1s-.9 1.6-1.4 1.7c-1.17-.18-4.22-5-2.9-6.3z" fill="#d1dbe0"/></g><path d="M22.2 12.15s-.5 3.1 3.3 5.4 3.3-1.3 5.9-2.3 3.4.2 3.6 1.4c2.4 10.87-14.78 2.77-13.7-3.1z" fill="#713336"/></svg>