<svg xmlns="http://www.w3.org/2000/svg" viewBox="0 0 27.86 34.56" xmlns:v="https://vecta.io/nano"><path d="M1.72 29.34L0 34.56h10.32c1.61-3.76 4.73-13.79-4.53-11.68" fill="#00c886"/><path d="M27.22,34.56c.32-10.7-1.67-12.78-8.39-15.46-11.5,1.4-13,1.06-15.09,15.46Z" fill="#ceead6"/><path d="M12.14,14.41a31.63,31.63,0,0,1-1.58,6.32s-.3,2.07,4,1.18,3.75-3.06,3.75-3.06V10.26Z" fill="#de776c"/><path d="M6,7s0,8.17,2.39,12.1c6.83,3,14.41-10,9.79-16.19C14.34-1.53,5.49,1.45,6,7Z" fill="#fba894"/><path d="M12 10.56a.59.59 0 0 1-1.16.19.59.59 0 0 1 1.16-.19zm-3.87.56a.59.59 0 0 1-1.16.2.59.59 0 0 1 1.16-.2z" fill="#505e83"/><path d="M9 12.06A13.67 13.67 0 0 0 8.43 15c.16.25 3.07-1 .76-1.06 0-.05.46-2.19-.19-1.88zm.36 4.18l2.55-.6c.4 1.3-2.4 2.14-2.55.6z" fill="#de6972"/><path d="M10.41 16.37a1.25 1.25 0 0 0 .82-.57l-1.67.39c.1.15.33.31.85.18z" fill="#fff"/><path d="M10.77 9.35a2 2 0 0 1 1.57-.07c.34-.7-1.88-.58-1.57.07zm-4 .65a2 2 0 0 1 1.57-.08c.34-.74-1.88-.62-1.57.08z" fill="#505e83"/><path d="M13.73 12.62c.17.93-1.39 1.19-1.54.26s1.4-1.19 1.54-.26zm-7.15.47h0l.26 1.43a.73.73 0 1 0-.26-1.43z" fill="#fb8585"/><path d="M17.06 11.57s1.54-2.37 2.57-1c.78 2.7-4.42 5.62-2.57 1z" fill="#fba894"/><g fill="#505e83"><path d="M6,7C-.55-1.1,24.11-4.64,19.36,10.27c-.39.49-1.57.79-1.57,1.67-.22,2.89-1,1.18-.79-1,.08-2.54-.54-7.09-4.35-5.83C11.76,5.33,11.18,7.61,6,7Z"/><path d="M16.8 9.41l.2-.07h0z" opacity=".53"/></g><path d="M27.86 34.56c-.4-10.17-.06-12.85-9-15.46 0 0-1.48 6.81-2.87 15.46zm-21.32 0c2-8.76 3.63-14 3.63-14-6.17 1.2-5.37 6.08-7.65 14z" fill="#00c886"/></svg>