<svg xmlns="http://www.w3.org/2000/svg" viewBox="0 0 9.26 9.32" xmlns:v="https://vecta.io/nano"><path d="M8.88 3.78h-.47a3.53 3.53 0 0 0-.47-1.15C9.09 2 7.23.28 6.69 1.38A3.89 3.89 0 0 0 5.54.9C5.94-.26 3.4-.35 3.78.9a3.78 3.78 0 0 0-1.15.48C2.09.28.23 2 1.38 2.63A3.78 3.78 0 0 0 .9 3.78c-1.16-.4-1.25 2.14 0 1.76a3.89 3.89 0 0 0 .48 1.15c-1.1.54.63 2.4 1.25 1.25a3.53 3.53 0 0 0 1.15.47c-.4 1.16 2.14 1.25 1.76 0a3.62 3.62 0 0 0 1.15-.47c.54 1.1 2.4-.63 1.25-1.25a3.62 3.62 0 0 0 .47-1.15c.29 0 .84.07.83-.36s.23-1.42-.36-1.4zM4.66 6.5c-2.39 0-2.39-3.72 0-3.69s2.39 3.73 0 3.69z" fill="#6376fd"/></svg>