<svg xmlns="http://www.w3.org/2000/svg" viewBox="0 0 11.66 11.35" xmlns:v="https://vecta.io/nano"><path d="M10.86 5.28C10.24 2.89 10.63.35 7.21.91 7.32.62 7.33 0 6.9 0c-.55.22-3.48-.54-2.8.91C1.13.29 1.31 3.34.8 5.28c-1.1.15-1.13 4.54.3 4.31.09.34-.28 1.76.38 1.73 1.72.18 1.43-.32 1.43-1.73h5.84c0 1.42-.29 1.91 1.43 1.73.65 0 .29-1.4.38-1.73 1.44.23 1.44-4.15.3-4.31zM2 8.65a.8.8 0 0 1 0-1.59.8.8 0 0 1 0 1.59zm0-4.13a.29.29 0 0 1-.28-.35c.24-.85.23-2.69 1.53-2.62 1 .3 6.06-.8 6.23 1-.07.29.76 2 .08 2zm7.64 4.13a.8.8 0 0 1 0-1.59.8.8 0 0 1 0 1.59z" fill="#fff"/></svg>