<svg xmlns="http://www.w3.org/2000/svg" viewBox="0 0 11.24 10.93" xmlns:v="https://vecta.io/nano"><path d="M10.69.06C6.21-.3 9.21 1.09 7 1.82c-.87-.17-4 .64-3.74-1.1C3.3-.39 1.07.2.48.06A.48.48 0 0 0 0 .54v9.87c-.06.87 2.16.34 2.58.48a.66.66 0 0 0 .67-.67C3.19 8.7 6.18 9.47 7 9.29c1.16-.09.6 1.57 1.59 1.6.42-.15 2.66.4 2.59-.48-.26-.28.56-10.77-.49-10.35zM2.1 8.62c0 .44-.62.31-.89.33C.77 9 .9 8.33.88 8.06c0-.45.62-.31.89-.33.45-.01.31.62.33.89zm0-2.86c0 .45-.62.31-.89.33C.77 6.1.9 5.47.88 5.2c0-.45.62-.31.89-.33.45-.01.31.62.33.89zm0-2.86c0 .45-.62.31-.89.33-.44 0-.31-.62-.33-.89 0-.44.62-.31.89-.33.45-.01.31.62.33.89zm5.82 4C8 8.42 5 7.64 4.17 7.82c-1.5.06-.75-2.79-.92-3.6-.06-1.53 2.93-.74 3.75-.93 1.5-.06.75 2.8.92 3.61zm2.37 1.72c0 .44-.62.31-.89.33-.45 0-.31-.62-.33-.89 0-.45.62-.31.89-.33.44-.01.31.62.33.89zm0-2.86c0 .45-.62.31-.89.33-.45 0-.31-.62-.33-.89 0-.45.62-.31.89-.33.44-.01.31.62.33.89zm0-2.86c0 .45-.62.31-.89.33-.45 0-.31-.62-.33-.89 0-.44.62-.31.89-.33.44-.01.31.62.33.89z" fill="#fff"/></svg>