<svg xmlns="http://www.w3.org/2000/svg" viewBox="0 0 11.83 12.07" xmlns:v="https://vecta.io/nano"><path d="M6.77 4.24c-.18-.3.42-4.34-.39-4.19C6.13.21-.29-.36 0 .44v11.18c0 .71 1.77.28 2.11.39.67 0 .29-1.51.39-1.85 0-.62 1.15-.32 1.48-.39.71 0 .27 1.89.39 2.24H5c8.73-.06 6.5 1.41 6.76-7-.13-1.11-4.86.34-4.99-.77zM4.4 2.57h-.65v.65H3v-.65h-.62v-.72H3V1.2h.72v.65h.68zm4.4 7.19c0 .48-.63.36-.93.37-.48 0-.36-.64-.37-.94 0-.48.63-.36.93-.37.48-.01.36.64.37.94zm0-2.59c0 .48-.63.36-.93.37-.48 0-.36-.63-.37-.93 0-.48.63-.36.93-.37.48-.01.36.63.37.93zm2.06 2.59c0 .48-.63.36-.93.37-.48 0-.36-.64-.37-.94 0-.48.63-.36.93-.37.51-.01.36.64.37.94zm0-2.59c0 .48-.63.36-.93.37-.48 0-.36-.63-.37-.93 0-.48.63-.36.93-.37.51-.01.36.63.37.93z" fill="#fff"/></svg>